<mxfile host="65bd71144e">
    <diagram id="XjfySjdnjgLx_--PwFxn" name="Page-1">
        <mxGraphModel dx="1111" dy="735" grid="1" gridSize="10" guides="1" tooltips="1" connect="1" arrows="1" fold="1" page="1" pageScale="1" pageWidth="850" pageHeight="1100" background="#FFFFFF" math="0" shadow="0">
            <root>
                <mxCell id="0"/>
                <mxCell id="1" parent="0"/>
                <mxCell id="36" style="edgeStyle=orthogonalEdgeStyle;html=1;strokeColor=#000000;fontSize=14;fontColor=#000066;" edge="1" parent="1" source="2" target="6">
                    <mxGeometry relative="1" as="geometry"/>
                </mxCell>
                <mxCell id="2" value="&lt;font style=&quot;&quot;&gt;&lt;font style=&quot;font-size: 29px;&quot;&gt;Galaxy Tech &lt;/font&gt;&lt;font style=&quot;font-size: 17px;&quot;&gt;(website)&lt;/font&gt;&lt;/font&gt;" style="whiteSpace=wrap;html=1;rounded=1;glass=0;shadow=0;fillColor=#0050ef;strokeColor=#006600;fontColor=#ffffff;gradientColor=none;strokeWidth=5;" vertex="1" parent="1">
                    <mxGeometry x="320" y="420" width="250" height="60" as="geometry"/>
                </mxCell>
                <mxCell id="18" style="edgeStyle=orthogonalEdgeStyle;html=1;fontSize=14;fontColor=#000000;strokeColor=#000000;startArrow=none;" edge="1" parent="1" source="22" target="2">
                    <mxGeometry relative="1" as="geometry">
                        <Array as="points">
                            <mxPoint x="40" y="470"/>
                        </Array>
                    </mxGeometry>
                </mxCell>
                <mxCell id="21" style="edgeStyle=orthogonalEdgeStyle;html=1;fontSize=14;fontColor=#000000;strokeColor=#000000;" edge="1" parent="1" source="3" target="2">
                    <mxGeometry relative="1" as="geometry">
                        <mxPoint x="79.99999999999977" y="460" as="targetPoint"/>
                        <Array as="points">
                            <mxPoint x="100" y="450"/>
                        </Array>
                    </mxGeometry>
                </mxCell>
                <mxCell id="25" style="edgeStyle=orthogonalEdgeStyle;html=1;strokeColor=#000000;fontSize=14;fontColor=#000066;startArrow=none;" edge="1" parent="1" source="26" target="2">
                    <mxGeometry relative="1" as="geometry">
                        <mxPoint x="300" y="430" as="targetPoint"/>
                        <Array as="points">
                            <mxPoint x="200" y="440"/>
                        </Array>
                    </mxGeometry>
                </mxCell>
                <mxCell id="38" style="edgeStyle=orthogonalEdgeStyle;html=1;strokeColor=#000000;fontSize=14;fontColor=#000066;startArrow=none;" edge="1" parent="1" source="37" target="2">
                    <mxGeometry relative="1" as="geometry"/>
                </mxCell>
                <mxCell id="3" value="&lt;font color=&quot;#000000&quot;&gt;User&lt;/font&gt;" style="ellipse;whiteSpace=wrap;html=1;rounded=1;shadow=0;glass=0;strokeColor=#23445d;strokeWidth=5;fontSize=17;fillColor=#bac8d3;" vertex="1" parent="1">
                    <mxGeometry x="90" y="60" width="110" height="60" as="geometry"/>
                </mxCell>
                <mxCell id="35" style="edgeStyle=orthogonalEdgeStyle;html=1;strokeColor=#000000;fontSize=14;fontColor=#000066;" edge="1" parent="1" source="5" target="32">
                    <mxGeometry relative="1" as="geometry">
                        <mxPoint x="605" y="200" as="targetPoint"/>
                    </mxGeometry>
                </mxCell>
                <mxCell id="5" value="&lt;font color=&quot;#000000&quot;&gt;Visitor&lt;/font&gt;" style="ellipse;whiteSpace=wrap;html=1;rounded=1;shadow=0;glass=0;strokeColor=#23445d;strokeWidth=5;fontSize=17;fillColor=#bac8d3;" vertex="1" parent="1">
                    <mxGeometry x="630" y="60" width="110" height="60" as="geometry"/>
                </mxCell>
                <mxCell id="8" value="" style="group" vertex="1" connectable="0" parent="1">
                    <mxGeometry x="700" y="360" width="100" height="140" as="geometry"/>
                </mxCell>
                <mxCell id="6" value="&lt;font color=&quot;#000000&quot;&gt;DataBase&lt;/font&gt;" style="whiteSpace=wrap;html=1;rounded=1;shadow=0;glass=0;strokeColor=#d6b656;strokeWidth=5;fontSize=17;gradientColor=#ffd966;fillColor=#fff2cc;" vertex="1" parent="8">
                    <mxGeometry y="20" width="100" height="120" as="geometry"/>
                </mxCell>
                <mxCell id="7" value="" style="ellipse;whiteSpace=wrap;html=1;rounded=1;shadow=0;glass=0;strokeColor=#006600;strokeWidth=5;fontSize=17;fontColor=#000000;gradientColor=none;" vertex="1" parent="8">
                    <mxGeometry width="100" height="50" as="geometry"/>
                </mxCell>
                <mxCell id="23" value="" style="edgeStyle=orthogonalEdgeStyle;html=1;entryX=0;entryY=0.5;entryDx=0;entryDy=0;fontSize=14;fontColor=#000000;strokeColor=#000000;endArrow=none;" edge="1" parent="1" source="3" target="22">
                    <mxGeometry relative="1" as="geometry">
                        <mxPoint x="139.94117647058806" y="119.87282949159987" as="sourcePoint"/>
                        <mxPoint x="309.9999999999998" y="440" as="targetPoint"/>
                        <Array as="points">
                            <mxPoint x="40" y="90"/>
                            <mxPoint x="40" y="325"/>
                        </Array>
                    </mxGeometry>
                </mxCell>
                <mxCell id="22" value="&lt;font color=&quot;#000066&quot;&gt;&lt;b&gt;LogIn&lt;/b&gt;&lt;/font&gt;" style="text;html=1;align=center;verticalAlign=middle;resizable=0;points=[];autosize=1;strokeColor=#666666;fillColor=#f5f5f5;fontSize=14;rotation=0;gradientColor=#b3b3b3;" vertex="1" parent="1">
                    <mxGeometry x="20" y="310" width="60" height="30" as="geometry"/>
                </mxCell>
                <mxCell id="24" value="&lt;font color=&quot;#000066&quot;&gt;&lt;b&gt;Product Page&lt;/b&gt;&lt;/font&gt;" style="text;html=1;align=center;verticalAlign=middle;resizable=0;points=[];autosize=1;strokeColor=#666666;fillColor=#f5f5f5;fontSize=14;rotation=0;gradientColor=#b3b3b3;" vertex="1" parent="1">
                    <mxGeometry x="50" y="230" width="110" height="30" as="geometry"/>
                </mxCell>
                <mxCell id="27" value="" style="edgeStyle=orthogonalEdgeStyle;html=1;strokeColor=#000000;fontSize=14;fontColor=#000066;endArrow=none;" edge="1" parent="1" source="3" target="26">
                    <mxGeometry relative="1" as="geometry">
                        <mxPoint x="300" y="430" as="targetPoint"/>
                        <mxPoint x="149.75719109648185" y="119.88757014963676" as="sourcePoint"/>
                        <Array as="points">
                            <mxPoint x="140" y="205"/>
                            <mxPoint x="170" y="205"/>
                        </Array>
                    </mxGeometry>
                </mxCell>
                <mxCell id="26" value="&lt;font color=&quot;#000066&quot;&gt;&lt;b&gt;Add To Cart&lt;/b&gt;&lt;/font&gt;" style="text;html=1;align=center;verticalAlign=middle;resizable=0;points=[];autosize=1;strokeColor=#666666;fillColor=#f5f5f5;fontSize=14;rotation=0;gradientColor=#b3b3b3;" vertex="1" parent="1">
                    <mxGeometry x="125" y="290" width="100" height="30" as="geometry"/>
                </mxCell>
                <mxCell id="30" value="" style="edgeStyle=orthogonalEdgeStyle;html=1;strokeColor=#000000;fontSize=14;fontColor=#000066;entryX=0;entryY=0.25;entryDx=0;entryDy=0;endArrow=none;" edge="1" parent="1" source="3" target="29">
                    <mxGeometry relative="1" as="geometry">
                        <mxPoint x="310" y="425" as="targetPoint"/>
                        <mxPoint x="199.99989427133232" y="90.05882352941171" as="sourcePoint"/>
                        <Array as="points">
                            <mxPoint x="170" y="180"/>
                            <mxPoint x="210" y="180"/>
                            <mxPoint x="210" y="227"/>
                        </Array>
                    </mxGeometry>
                </mxCell>
                <mxCell id="31" style="edgeStyle=orthogonalEdgeStyle;html=1;strokeColor=#000000;fontSize=14;fontColor=#000066;" edge="1" parent="1" source="29" target="2">
                    <mxGeometry relative="1" as="geometry">
                        <Array as="points">
                            <mxPoint x="240" y="425"/>
                        </Array>
                    </mxGeometry>
                </mxCell>
                <mxCell id="29" value="&lt;font color=&quot;#000066&quot;&gt;&lt;b&gt;Payment&lt;/b&gt;&lt;/font&gt;" style="text;html=1;align=center;verticalAlign=middle;resizable=0;points=[];autosize=1;strokeColor=#666666;fillColor=#f5f5f5;fontSize=14;rotation=0;gradientColor=#b3b3b3;" vertex="1" parent="1">
                    <mxGeometry x="225" y="220" width="80" height="30" as="geometry"/>
                </mxCell>
                <mxCell id="34" style="edgeStyle=orthogonalEdgeStyle;html=1;entryX=1;entryY=0.25;entryDx=0;entryDy=0;strokeColor=#000000;fontSize=14;fontColor=#000066;" edge="1" parent="1" source="32" target="2">
                    <mxGeometry relative="1" as="geometry"/>
                </mxCell>
                <mxCell id="32" value="&lt;font color=&quot;#000066&quot;&gt;&lt;b&gt;Product Page&lt;/b&gt;&lt;/font&gt;" style="text;html=1;align=center;verticalAlign=middle;resizable=0;points=[];autosize=1;strokeColor=#666666;fillColor=#f5f5f5;fontSize=14;rotation=0;gradientColor=#b3b3b3;" vertex="1" parent="1">
                    <mxGeometry x="600" y="220" width="110" height="30" as="geometry"/>
                </mxCell>
                <mxCell id="39" value="" style="edgeStyle=orthogonalEdgeStyle;html=1;strokeColor=#000000;fontSize=14;fontColor=#000066;endArrow=none;" edge="1" parent="1" source="3" target="37">
                    <mxGeometry relative="1" as="geometry">
                        <mxPoint x="199.99989427133232" y="90.05882352941171" as="sourcePoint"/>
                        <mxPoint x="445" y="420" as="targetPoint"/>
                    </mxGeometry>
                </mxCell>
                <mxCell id="37" value="&lt;font color=&quot;#000066&quot;&gt;&lt;b&gt;Product detailPage&lt;br&gt;&lt;/b&gt;&lt;/font&gt;" style="text;html=1;align=center;verticalAlign=middle;resizable=0;points=[];autosize=1;strokeColor=#666666;fillColor=#f5f5f5;fontSize=14;rotation=0;gradientColor=#b3b3b3;" vertex="1" parent="1">
                    <mxGeometry x="280" y="280" width="150" height="30" as="geometry"/>
                </mxCell>
                <mxCell id="50" style="edgeStyle=orthogonalEdgeStyle;html=1;strokeColor=#000000;fontSize=14;fontColor=#000066;startArrow=none;" edge="1" parent="1" source="49" target="2">
                    <mxGeometry relative="1" as="geometry">
                        <Array as="points">
                            <mxPoint x="525" y="535"/>
                            <mxPoint x="520" y="535"/>
                        </Array>
                    </mxGeometry>
                </mxCell>
                <mxCell id="40" value="&lt;font color=&quot;#000000&quot;&gt;Admin&lt;/font&gt;" style="ellipse;whiteSpace=wrap;html=1;rounded=1;shadow=0;glass=0;strokeColor=#23445d;strokeWidth=5;fontSize=17;fillColor=#bac8d3;" vertex="1" parent="1">
                    <mxGeometry x="400" y="670" width="110" height="60" as="geometry"/>
                </mxCell>
                <mxCell id="43" value="&lt;font color=&quot;#000066&quot;&gt;&lt;b&gt;Payment&lt;/b&gt;&lt;/font&gt;" style="text;html=1;align=center;verticalAlign=middle;resizable=0;points=[];autosize=1;strokeColor=#666666;fillColor=#f5f5f5;fontSize=14;rotation=0;gradientColor=#b3b3b3;" vertex="1" parent="1">
                    <mxGeometry x="225" y="220" width="80" height="30" as="geometry"/>
                </mxCell>
                <mxCell id="47" value="" style="edgeStyle=orthogonalEdgeStyle;html=1;strokeColor=#000000;fontSize=14;fontColor=#000066;endArrow=none;" edge="1" parent="1" source="40" target="44">
                    <mxGeometry relative="1" as="geometry">
                        <mxPoint x="400.00010572866745" y="700.0588235294117" as="sourcePoint"/>
                        <mxPoint x="340" y="550" as="targetPoint"/>
                        <Array as="points">
                            <mxPoint x="350" y="700"/>
                        </Array>
                    </mxGeometry>
                </mxCell>
                <mxCell id="48" style="edgeStyle=orthogonalEdgeStyle;html=1;strokeColor=#000000;fontSize=14;fontColor=#000066;" edge="1" parent="1" source="44" target="2">
                    <mxGeometry relative="1" as="geometry">
                        <Array as="points">
                            <mxPoint x="340" y="510"/>
                            <mxPoint x="340" y="510"/>
                        </Array>
                    </mxGeometry>
                </mxCell>
                <mxCell id="44" value="&lt;font color=&quot;#000066&quot;&gt;&lt;b&gt;Manipulate Price and Sale&lt;br&gt;&lt;/b&gt;&lt;/font&gt;" style="text;html=1;align=center;verticalAlign=middle;resizable=0;points=[];autosize=1;strokeColor=#666666;fillColor=#f5f5f5;fontSize=14;rotation=0;gradientColor=#b3b3b3;" vertex="1" parent="1">
                    <mxGeometry x="240" y="580" width="200" height="30" as="geometry"/>
                </mxCell>
                <mxCell id="52" value="" style="edgeStyle=orthogonalEdgeStyle;html=1;strokeColor=#000000;fontSize=14;fontColor=#000066;endArrow=none;" edge="1" parent="1" source="40" target="49">
                    <mxGeometry relative="1" as="geometry">
                        <mxPoint x="455" y="670" as="sourcePoint"/>
                        <mxPoint x="520.0588235294119" y="480" as="targetPoint"/>
                        <Array as="points">
                            <mxPoint x="520" y="700"/>
                        </Array>
                    </mxGeometry>
                </mxCell>
                <mxCell id="49" value="&lt;font color=&quot;#000066&quot;&gt;&lt;b&gt;Admin Panel&lt;br&gt;&lt;/b&gt;&lt;/font&gt;" style="text;html=1;align=center;verticalAlign=middle;resizable=0;points=[];autosize=1;strokeColor=#666666;fillColor=#f5f5f5;fontSize=14;rotation=0;gradientColor=#b3b3b3;" vertex="1" parent="1">
                    <mxGeometry x="470" y="590" width="110" height="30" as="geometry"/>
                </mxCell>
            </root>
        </mxGraphModel>
    </diagram>
</mxfile>